
        <svg xmlns="http://www.w3.org/2000/svg" xmlns:xlink="http://www.w3.org/1999/xlink" version="1.1" width="3300" 
        height="2667.226177256367" viewBox="0 0 3300 2667.226177256367">
			
			<g transform="scale(15.000000000000002) translate(10, 10)">
				<defs id="SvgjsDefs2445"><linearGradient id="SvgjsLinearGradient2452"><stop id="SvgjsStop2453" stop-color="#006838" offset="0"></stop><stop id="SvgjsStop2454" stop-color="#96cf24" offset="1"></stop></linearGradient></defs><g id="SvgjsG2446" featureKey="symbolFeature-0" transform="matrix(11.853677996951616,0,0,11.853677996951616,51.00001130454826,0)" fill="url(#SvgjsLinearGradient2452)"><defs xmlns="http://www.w3.org/2000/svg"></defs><g xmlns="http://www.w3.org/2000/svg"><path class="fil0" d="M4.0469 3.6506c0,0 -0.008,-1.6637 -0.0646,-1.3246 -0.0565,0.3392 -0.323,1.583 -0.323,1.583 -2.6667,-1.9753 -0.439,-2.5912 -0.1616,-3.909 0,0 2.2291,1.3569 0.5492,3.6506zm-1.577 1.8638c0.1131,0.9319 -0.3275,0.7466 -0.8413,1.1319 0,0 -0.3341,-1.002 0.6566,-1.163 0,0 -0.3777,0.4656 -0.2819,0.3862 0.0959,-0.0795 0.4666,-0.3551 0.4666,-0.3551zm-0.2697 -2.5481c-0.9525,0.4201 -0.8977,-0.1071 -1.4722,-0.5282 0,0 0.9558,-0.6773 1.4457,0.3221 0,0 -0.6157,-0.2508 -0.5006,-0.1747 0.1152,0.0762 0.5271,0.3808 0.5271,0.3808zm2.7403 2.3612c0.0252,1.401 0.6382,1.0363 1.4776,1.4999 0,0 0.2871,-1.5506 -1.2109,-1.584 0,0 0.6546,0.6104 0.4965,0.5127 -0.1582,-0.0976 -0.7632,-0.4286 -0.7632,-0.4286zm0.1011 -3.1874c-0.2999,-1.3687 0.3808,-1.1559 1.09,-1.8013 0,0 0.6385,1.4419 -0.811,1.8214 0,0 0.4954,-0.7455 0.3642,-0.6138 -0.1313,0.1317 -0.6432,0.5937 -0.6432,0.5937zm-1.2743 2.0508c-1.8511,1.2038 -0.6395,2.2657 -0.3994,3.8919 0,0 2.3076,-1.2184 0.7706,-3.6103 0,0 -0.1094,1.6602 -0.1452,1.3182 -0.0358,-0.3421 -0.226,-1.5998 -0.226,-1.5998zm-0.4762 -0.022c-1.269,1.8442 -1.764,0.8177 -3.2911,0.6952 0,0 0.9848,-2.3189 3.0101,-1.0424 0,0 -1.4105,0.2359 -1.1136,0.2452 0.2968,0.0094 1.3946,0.102 1.3946,0.102zm1.0375 0.0941c1.6045,2.0982 3.1897,-1.096 4.1076,-1.8599 -1.9655,-0.158 -2.6897,-0.7459 -4.0469,1.398 0,0 1.4963,-0.7275 1.2169,-0.5269 -0.2793,0.2004 -1.2776,0.9888 -1.2776,0.9888z" style="fill: url(#SvgjsLinearGradient2452);"></path></g></g><g id="SvgjsG2447" featureKey="fiAKjI-0" transform="matrix(2.00880168769258,0,0,2.00880168769258,-3.3524882047729574,100.51013025516924)" fill="#59a52c"><path d="M15.259 8.593 l2.3476 0 l0 11.25 l-13.59 -7.098 l0 7.2556 l-2.3477 0 l0 -11.25 l13.59 7.098 l0 -7.2556 z M29.1154 7.711 l9.1766 12.19 l-2.9508 0 l-2.566 -3.3974 l-7.3197 0 l-2.5286 3.3974 l-2.9177 0 z M27.2162 14.1556 l3.7983 0 l-1.8992 -2.5322 z M43.03380000000001 20.02461 l-2.3246 0 l0 -11.295 l2.3246 0 l0 11.295 z M48.73700000000001 17.619 l13.59 0 l0 2.3477 l-15.938 0 l0 -11.407 l2.3477 0 l0 9.0597 z M73.8554 7.711 l9.1766 12.19 l-2.9508 0 l-2.566 -3.3974 l-7.3197 0 l-2.5286 3.3974 l-2.9177 0 z M71.95620000000001 14.1556 l3.7983 0 l-1.8992 -2.5322 z M101.19600000000001 17.619 l0.034746 2.3244 l-1.1621 0.017402 c-0.18049 0.002754 -0.38464 0.0058984 -0.60738 0.0058984 c-1.6091 0 -4.1898 -0.15982 -5.8222 -1.768 c-0.77534 -0.7638 -1.2442 -1.7492 -1.4014 -2.9364 c-0.85432 0.12438 -1.7942 0.19199 -2.8226 0.19199 l-1.641 0 l0 4.4852 l-2.3246 0 l0 -11.295 l2.3246 0 l0 4.4853 l1.641 0 c4.7582 0 7.2478 -1.6252 7.2478 -3.2308 l0 -1.1623 l2.3246 0 l0 1.1622 c0 1.9109 -1.4137 3.8334 -4.469 4.8392 c0.06213 0.77546 0.30946 1.3688 0.75204 1.8049 c1.1652 1.1478 3.5954 1.1114 4.7634 1.0939 z"></path></g><g id="SvgjsG2448" featureKey="sloganFeature-0" transform="matrix(0.4732693203438132,0,0,0.4732693203438132,7.460473037996325,148.25503785173692)" fill="#4c5d6d"><path d="M1.14 13 c0 -4.04 3.18 -7.2 7.18 -7.2 c1.68 0 3.28 0.56 4.7 1.64 l-0.9 1.4 c-1.18 -0.9 -2.4 -1.34 -3.8 -1.34 c-3.02 0 -5.38 2.42 -5.38 5.5 s2.38 5.5 5.38 5.5 c1.52 0 2.82 -0.48 3.8 -1.42 l0.92 1.38 c-1.22 1.1 -2.94 1.74 -4.72 1.74 c-4 0 -7.18 -3.18 -7.18 -7.2 z M25.617 20.2 c-4 0 -7.18 -3.2 -7.18 -7.2 s3.18 -7.2 7.18 -7.2 s7.18 3.2 7.18 7.2 s-3.18 7.2 -7.18 7.2 z M25.617 18.48 c3.04 0 5.32 -2.38 5.32 -5.48 s-2.28 -5.48 -5.32 -5.48 c-3.06 0 -5.34 2.38 -5.34 5.48 s2.28 5.48 5.34 5.48 z M52.373999999999995 5.800000000000001 l0.22 0 l0 14.2 l-1.78 0 l0 -9.42 l-4.96 6.48 l-0.12 0 l-4.96 -6.46 l0 9.4 l-1.78 0 l0 -14.2 l0.2 0 l6.6 8.4 z M64.631 6 c3.28 0 4.82 2.48 4.82 5.1 s-1.54 5.1 -4.82 5.1 l-3.5 0 l0 3.8 l-1.8 0 l0 -14 l5.3 0 z M64.551 14.48 c1.84 0 3.06 -1.42 3.06 -3.38 s-1.22 -3.38 -3.06 -3.38 l-3.42 0 l0 6.76 l3.42 0 z M77.428 18.28 l5.92 0 l-0.12 1.72 l-7.6 0 l0 -14 l1.8 0 l0 12.28 z M97.285 18.28 l0.12 1.72 l-8.52 0 l0 -14 l8.12 0 l0.14 1.72 l-6.46 0 l0 3.42 l4.38 0 l0 1.72 l-4.38 0 l0 5.42 l6.6 0 z M112.102 7.720000000000001 l-4.08 0 l0 12.28 l-1.8 0 l0 -12.28 l-4.1 0 l0.12 -1.72 l9.74 0 z M126.039 18.28 l0.12 1.72 l-8.52 0 l0 -14 l8.12 0 l0.14 1.72 l-6.46 0 l0 3.42 l4.38 0 l0 1.72 l-4.38 0 l0 5.42 l6.6 0 z M141.753 13 c0 -4.04 3.18 -7.2 7.18 -7.2 c1.68 0 3.28 0.56 4.7 1.64 l-0.9 1.4 c-1.18 -0.9 -2.4 -1.34 -3.8 -1.34 c-3.02 0 -5.38 2.42 -5.38 5.5 s2.38 5.5 5.38 5.5 c1.52 0 2.82 -0.48 3.8 -1.42 l0.92 1.38 c-1.22 1.1 -2.94 1.74 -4.72 1.74 c-4 0 -7.18 -3.18 -7.18 -7.2 z M168.81 20 l-1.22 -2.84 l-6.24 0 l-1.22 2.84 l-1.92 0 l6.16 -14.2 l0.2 0 l6.16 14.2 l-1.92 0 z M162.07 15.48 l4.8 0 l-2.4 -5.54 z M186.267 11.06 c0 2.26 -1.06 4.2 -3.24 4.84 l3.02 4.1 l-2.16 0 l-2.86 -3.88 l-3.14 0 l0 3.88 l-1.8 0 l0 -14 l5.28 0 c3.3 0 4.9 2.28 4.9 5.06 z M177.887 7.68 l0 6.74 l3.4 0 c2.26 0 3.18 -1.66 3.18 -3.36 s-0.92 -3.38 -3.18 -3.38 l-3.4 0 z M200.804 18.28 l0.12 1.72 l-8.52 0 l0 -14 l8.12 0 l0.14 1.72 l-6.46 0 l0 3.42 l4.38 0 l0 1.72 l-4.38 0 l0 5.42 l6.6 0 z M226.67800000000003 6 l1.8 0 l0 14.2 l-0.22 0 l-9.4 -9.98 l0 9.78 l-1.78 0 l0 -14.2 l0.2 0 l9.4 9.98 l0 -9.78 z M244.41500000000002 20 l-1.22 -2.84 l-6.24 0 l-1.22 2.84 l-1.92 0 l6.16 -14.2 l0.2 0 l6.16 14.2 l-1.92 0 z M237.675 15.48 l4.8 0 l-2.4 -5.54 z M260.432 7.720000000000001 l-4.08 0 l0 12.28 l-1.8 0 l0 -12.28 l-4.1 0 l0.12 -1.72 l9.74 0 z M265.829 14.46 l0 -8.46 l1.8 0 l0 8.32 c0 2.7 1.56 4.08 3.76 4.08 s3.78 -1.38 3.78 -4.08 l0 -8.32 l1.78 0 l0 8.46 c0 3.64 -2.08 5.74 -5.56 5.74 c-3.46 0 -5.56 -2.1 -5.56 -5.74 z M293.746 11.06 c0 2.26 -1.06 4.2 -3.24 4.84 l3.02 4.1 l-2.16 0 l-2.86 -3.88 l-3.14 0 l0 3.88 l-1.8 0 l0 -14 l5.28 0 c3.3 0 4.9 2.28 4.9 5.06 z M285.366 7.68 l0 6.74 l3.4 0 c2.26 0 3.18 -1.66 3.18 -3.36 s-0.92 -3.38 -3.18 -3.38 l-3.4 0 z M309.08299999999997 20 l-1.22 -2.84 l-6.24 0 l-1.22 2.84 l-1.92 0 l6.16 -14.2 l0.2 0 l6.16 14.2 l-1.92 0 z M302.343 15.48 l4.8 0 l-2.4 -5.54 z M318.15999999999997 18.28 l5.92 0 l-0.12 1.72 l-7.6 0 l0 -14 l1.8 0 l0 12.28 z M346.43399999999997 20.2 c-4 0 -7.18 -3.2 -7.18 -7.2 s3.18 -7.2 7.18 -7.2 s7.18 3.2 7.18 7.2 s-3.18 7.2 -7.18 7.2 z M346.43399999999997 18.48 c3.04 0 5.32 -2.38 5.32 -5.48 s-2.28 -5.48 -5.32 -5.48 c-3.06 0 -5.34 2.38 -5.34 5.48 s2.28 5.48 5.34 5.48 z M359.811 20 l0 -14 l1.8 0 l0 14 l-1.8 0 z M370.14799999999997 18.28 l5.92 0 l-0.12 1.72 l-7.6 0 l0 -14 l1.8 0 l0 12.28 z M380.825 18.54 c0.88 0.82 2.7 1.66 4.52 1.66 c2.8 0 4.58 -1.44 4.58 -3.7 c0 -1.84 -0.88 -2.92 -3.92 -4.64 c-2.32 -1.34 -2.88 -1.78 -2.88 -2.66 c0 -0.94 0.88 -1.68 2.36 -1.68 c0.86 0 2 0.38 2.66 0.8 l0.96 -1.44 c-0.94 -0.62 -2.42 -1.08 -3.6 -1.08 c-2.58 0 -4.3 1.48 -4.3 3.42 c0 1.72 0.86 2.58 3.5 4.02 c2.34 1.28 3.3 2.22 3.3 3.24 c0 1.2 -1.04 1.92 -2.66 1.92 c-1.4 0 -2.8 -0.66 -3.5 -1.3 z"></path></g>
			</g>
		</svg>
	